<?xml version="1.0" encoding="utf-8"?>
<!-- Svg Vector Icons : http://www.onlinewebfonts.com/icon -->
<!DOCTYPE svg PUBLIC "-//W3C//DTD SVG 1.1//EN" "http://www.w3.org/Graphics/SVG/1.1/DTD/svg11.dtd">
<svg version="1.1" xmlns="http://www.w3.org/2000/svg" xmlns:xlink="http://www.w3.org/1999/xlink" x="0px" y="0px" viewBox="0 0 1000 1000" enable-background="new 0 0 1000 1000" xml:space="preserve">
<metadata> Svg Vector Icons : http://www.onlinewebfonts.com/icon </metadata>
<g><path d="M677.3,922.3H325c-11.8,0-21.3,9.5-21.3,21.3c0,11.8,9.5,21.3,21.3,21.3h352.3c11.8,0,21.3-9.5,21.3-21.3C698.6,931.8,689,922.3,677.3,922.3z"/><path d="M989.5,470.5l-0.2,0v-37.3c0-11.8-9.5-21.3-21.3-21.3H31.3c-11.8,0-21.3,9.5-21.3,21.3v61.4h0.7c-0.1,8.6-0.1,16.1-0.1,19.3c0,74,20,147.4,57.7,212.2c36.4,62.5,89.2,116.9,152.7,157.4l5.2,3.3h8.3v0h533.3v0h6.2l5.2-3.3C842.7,843,895.5,788.5,931.9,726c8.7-15,16.5-30.4,23.3-46.3c1.6-2.4,2.8-5.1,3.4-8.1c20.4-50.2,31-103.8,31-157.8c0-3.2,0.1-7.4,0.2-11.8C990,491.3,990.2,479.1,989.5,470.5z M63.8,454.5h872.9c5.9,0,10.6,4.8,10.6,10.6v8.9l-0.2,0c0.1,1.2,0.2,2.5,0.2,3.9v16.6h0c0,2.3-0.1,4.5-0.1,6.6c-0.1,4.6-0.2,9-0.2,12.7c0,45.2-8.3,90.1-24.3,132.5H77.4c-16-42.4-24.3-87.4-24.3-132.5c0-13.4,0.3-41.6,1-50l-0.9-0.1C53.9,458.5,58.3,454.5,63.8,454.5z M761.5,844.2H238.7c-55.5-36.5-101.6-84.7-133.6-139.7c-3-5.1-5.9-10.4-8.6-15.6h807.3c-2.7,5.3-5.6,10.5-8.6,15.6C863,759.5,816.9,807.7,761.5,844.2z"/><path d="M484.6,216.1C484.6,216.1,484.6,216.1,484.6,216.1c19,16.7,27.2,42.4,21.5,67c-4.1,17.8-15,33-30.5,42.7c-10,6.2-13,19.4-6.8,29.3c4,6.5,11,10,18.1,10c3.8,0,7.7-1,11.2-3.2c25.2-15.7,42.8-40.3,49.5-69.2c9.2-39.9-4.1-81.5-34.8-108.6c-19-16.7-27.2-42.4-21.5-67c4.1-17.8,15-33,30.5-42.7c10-6.2,13-19.4,6.8-29.3c-6.2-10-19.4-13-29.3-6.8c-25.2,15.7-42.8,40.3-49.5,69.2C440.5,147.4,453.9,189,484.6,216.1z"/><path d="M261,218.2C261,218.2,261,218.2,261,218.2c19,16.7,27.2,42.4,21.5,67c-4.1,17.8-15,33-30.5,42.7c-10,6.2-13,19.4-6.8,29.3c4,6.5,11,10,18.1,10c3.8,0,7.7-1,11.2-3.2c25.2-15.7,42.8-40.3,49.5-69.2c9.2-39.9-4.1-81.5-34.8-108.6c-19-16.7-27.2-42.4-21.5-67c4.1-17.8,15-33,30.5-42.7c10-6.2,13-19.4,6.8-29.3c-6.2-10-19.4-13-29.3-6.8c-25.2,15.7-42.8,40.3-49.5,69.2C217,149.6,230.3,191.2,261,218.2z"/><path d="M709.6,218c19,16.7,27.2,42.4,21.5,67c-4.1,17.8-15,33-30.5,42.7c-10,6.2-13,19.4-6.8,29.3c4,6.5,11,10,18.1,10c3.8,0,7.7-1,11.2-3.2c25.2-15.7,42.8-40.3,49.5-69.2c9.2-39.9-4.1-81.5-34.8-108.6c-19-16.7-27.2-42.4-21.5-67c4.1-17.8,15-33,30.5-42.7c10-6.2,13-19.4,6.8-29.3c-6.2-10-19.4-13-29.3-6.8c-25.2,15.7-42.8,40.3-49.5,69.2C665.5,149.3,678.8,190.9,709.6,218z"/></g>
</svg>